<svg width="24" height="24" viewBox="0 0 24 24" fill="none" xmlns="http://www.w3.org/2000/svg">
  <path d="M12 4C9.79086 4 8 5.79086 8 8C8 10.2091 9.79086 12 12 12C14.2091 12 16 10.2091 16 8C16 5.79086 14.2091 4 12 4Z" stroke="currentColor" stroke-width="2"/>
  <path d="M5 16C3.34315 16 2 17.3431 2 19C2 20.6569 3.34315 22 5 22C6.65685 22 8 20.6569 8 19C8 17.3431 6.65685 16 5 16Z" stroke="currentColor" stroke-width="2"/>
  <path d="M19 16C17.3431 16 16 17.3431 16 19C16 20.6569 17.3431 22 19 22C20.6569 22 22 20.6569 22 19C22 17.3431 20.6569 16 19 16Z" stroke="currentColor" stroke-width="2"/>
  <path d="M8 19H16" stroke="currentColor" stroke-width="2" stroke-linecap="round"/>
  <path d="M12 12V15" stroke="currentColor" stroke-width="2" stroke-linecap="round"/>
</svg>